<svg width="227" height="80" viewBox="0 0 227 80" fill="none" xmlns="http://www.w3.org/2000/svg">
<path fill-rule="evenodd" clip-rule="evenodd" d="M40.0262 18.6046L43.6735 21.8973L51.4409 13.2498L47.7931 9.9571L40.0262 18.6046Z" fill="#0EF0B8"/>
<path fill-rule="evenodd" clip-rule="evenodd" d="M28.38 -1.52588e-05L23.4714 0.00687395L23.4901 14.8787L28.3992 14.8723L28.38 -1.52588e-05Z" fill="#0EF0B8"/>
<path fill-rule="evenodd" clip-rule="evenodd" d="M1.70422 40.7698L6.84794 46.7202L22.0206 33.5381L21.962 79.8278L29.8157 79.8376L29.8748 33.5338L45.052 46.7202L50.1958 40.7699L31.5887 24.6043H30.096V24.6043H20.3112L1.70422 40.7698Z" fill="white"/>
<path fill-rule="evenodd" clip-rule="evenodd" d="M0.429555 13.2499L8.19641 21.8974L11.8442 18.6047L4.07732 9.9572L0.429555 13.2499Z" fill="#0EF0B8"/>
<path d="M110.995 40.0765H100.277V67.798H94.7098V40.0765H84.0386V34.8206H110.995V40.0765Z" fill="white"/>
<path d="M119.844 67.798H114.508V45.1464H119.844V67.798ZM114.694 39.6579C114.014 38.9757 113.673 38.154 113.673 37.1927C113.673 36.2315 114.014 35.4097 114.694 34.7276C115.374 34.0144 116.194 33.6578 117.153 33.6578C118.143 33.6578 118.978 33.9989 119.658 34.681C120.339 35.3632 120.679 36.2005 120.679 37.1927C120.679 38.154 120.339 38.9757 119.658 39.6579C118.978 40.3401 118.143 40.6812 117.153 40.6812C116.194 40.6812 115.374 40.3401 114.694 39.6579Z" fill="white"/>
<path d="M132.123 67.798H126.787V45.1464H131.937V48.0301C132.556 46.9138 133.484 46.0456 134.721 45.4254C135.989 44.8053 137.288 44.4952 138.618 44.4952C140.134 44.4952 141.495 44.8363 142.701 45.5185C143.908 46.2006 144.805 47.1929 145.392 48.4953C146.97 45.8285 149.413 44.4952 152.723 44.4952C154.95 44.4952 156.837 45.2239 158.383 46.6813C159.93 48.1387 160.703 50.2782 160.703 53.1V67.798H155.507V53.9837C155.507 52.5884 155.136 51.4721 154.393 50.6348C153.682 49.7666 152.599 49.3325 151.145 49.3325C149.754 49.3325 148.625 49.8131 147.758 50.7744C146.892 51.7356 146.459 52.9295 146.459 54.3558V67.798H141.17V53.9837C141.17 52.5884 140.799 51.4721 140.057 50.6348C139.345 49.7666 138.263 49.3325 136.809 49.3325C135.386 49.3325 134.242 49.8131 133.376 50.7744C132.54 51.7046 132.123 52.8985 132.123 54.3558V67.798Z" fill="white"/>
<path d="M171.052 53.9837H182.14C182.079 52.5574 181.568 51.3635 180.609 50.4023C179.681 49.441 178.336 48.9604 176.573 48.9604C174.964 48.9604 173.665 49.472 172.676 50.4953C171.686 51.4876 171.145 52.6504 171.052 53.9837ZM182.744 59.8908L187.291 61.3327C186.641 63.4103 185.419 65.1312 183.625 66.4956C181.862 67.829 179.681 68.4957 177.083 68.4957C173.866 68.4957 171.129 67.3949 168.871 65.1933C166.644 62.9917 165.531 60.0459 165.531 56.3559C165.531 52.8829 166.613 50.0302 168.778 47.7976C170.974 45.565 173.557 44.4487 176.527 44.4487C179.991 44.4487 182.697 45.5185 184.646 47.658C186.595 49.7666 187.569 52.6194 187.569 56.2163C187.569 57.1776 187.522 57.7513 187.43 57.9373H170.913C170.974 59.6428 171.593 61.0536 172.768 62.17C173.975 63.2863 175.413 63.8444 177.083 63.8444C179.991 63.8444 181.878 62.5265 182.744 59.8908Z" fill="white"/>
<path d="M198.094 67.798H192.712V34.1229H198.094V67.798Z" fill="white"/>
<path d="M211.903 76.9609H206.15L211.578 65.1002L201.928 45.1464H208.005L214.501 59.4722L220.579 45.1464H226.286L211.903 76.9609Z" fill="white"/>
</svg>
